<svg width="127" height="54" viewBox="0 0 127 54" fill="none" xmlns="http://www.w3.org/2000/svg">
<path d="M27 54C19.7875 54 13.0082 51.1906 7.9088 46.0912C2.80941 40.9918 0 34.2125 0 27C0 12.113 12.113 0 27 0C34.2125 0 40.9918 2.80941 46.0912 7.9088C51.1906 13.0082 54 19.7897 54 27C54 41.887 41.887 54 27 54ZM18.8481 35.1519C21.0253 37.3292 23.9209 38.5272 27 38.5272C33.3549 38.5272 38.5272 33.3571 38.5272 27C38.5272 23.9209 37.3292 21.0275 35.1519 18.8481C32.9725 16.673 30.0791 15.4728 27 15.4728C20.6429 15.4728 15.4728 20.6451 15.4728 27C15.4728 30.0791 16.6708 32.9747 18.8481 35.1519Z" fill="url(#paint0_linear)"/>
<path d="M26.9978 0V15.4728C20.6429 15.4728 15.4728 20.6451 15.4728 27C15.4728 30.0791 16.6708 32.9747 18.8481 35.1519C21.8697 38.1736 21.8697 43.0718 18.8481 46.0912C17.3384 47.6031 15.3578 48.3569 13.3773 48.3569C11.3968 48.3569 9.4185 47.6031 7.90659 46.0912C2.8072 40.9918 0 34.2125 0 27C0 12.113 12.1108 0 26.9978 0Z" fill="url(#paint1_linear)"/>
<path d="M27 54V38.5272C33.3549 38.5272 38.525 33.3549 38.525 27C38.525 23.9209 37.327 21.0253 35.1497 18.8481C32.1281 15.8265 32.1281 10.9282 35.1497 7.90881C36.6594 6.3969 38.6399 5.64316 40.6205 5.64316C42.601 5.64316 44.5793 6.3969 46.0912 7.90881C51.1906 13.0082 53.9978 19.7875 53.9978 27C53.9978 41.887 41.887 54 27 54Z" fill="url(#paint2_linear)"/>
<path d="M73.0391 28.9883V35H69.5234V17.9375H76.1797C77.4609 17.9375 78.5859 18.1719 79.5547 18.6406C80.5312 19.1094 81.2812 19.7773 81.8047 20.6445C82.3281 21.5039 82.5898 22.4844 82.5898 23.5859C82.5898 25.2578 82.0156 26.5781 80.8672 27.5469C79.7266 28.5078 78.1445 28.9883 76.1211 28.9883H73.0391ZM73.0391 26.1406H76.1797C77.1094 26.1406 77.8164 25.9219 78.3008 25.4844C78.793 25.0469 79.0391 24.4219 79.0391 23.6094C79.0391 22.7734 78.793 22.0977 78.3008 21.582C77.8086 21.0664 77.1289 20.8008 76.2617 20.7852H73.0391V26.1406ZM84.1016 28.543C84.1016 27.2852 84.3438 26.1641 84.8281 25.1797C85.3125 24.1953 86.0078 23.4336 86.9141 22.8945C87.8281 22.3555 88.8867 22.0859 90.0898 22.0859C91.8008 22.0859 93.1953 22.6094 94.2734 23.6562C95.3594 24.7031 95.9648 26.125 96.0898 27.9219L96.1133 28.7891C96.1133 30.7344 95.5703 32.2969 94.4844 33.4766C93.3984 34.6484 91.9414 35.2344 90.1133 35.2344C88.2852 35.2344 86.8242 34.6484 85.7305 33.4766C84.6445 32.3047 84.1016 30.7109 84.1016 28.6953V28.543ZM87.4883 28.7891C87.4883 29.9922 87.7148 30.9141 88.168 31.5547C88.6211 32.1875 89.2695 32.5039 90.1133 32.5039C90.9336 32.5039 91.5742 32.1914 92.0352 31.5664C92.4961 30.9336 92.7266 29.9258 92.7266 28.543C92.7266 27.3633 92.4961 26.4492 92.0352 25.8008C91.5742 25.1523 90.9258 24.8281 90.0898 24.8281C89.2617 24.8281 88.6211 25.1523 88.168 25.8008C87.7148 26.4414 87.4883 27.4375 87.4883 28.7891ZM105.066 31.4961C105.066 31.082 104.859 30.7578 104.445 30.5234C104.039 30.2812 103.383 30.0664 102.477 29.8789C99.4609 29.2461 97.9531 27.9648 97.9531 26.0352C97.9531 24.9102 98.418 23.9727 99.3477 23.2227C100.285 22.4648 101.508 22.0859 103.016 22.0859C104.625 22.0859 105.91 22.4648 106.871 23.2227C107.84 23.9805 108.324 24.9648 108.324 26.1758H104.938C104.938 25.6914 104.781 25.293 104.469 24.9805C104.156 24.6602 103.668 24.5 103.004 24.5C102.434 24.5 101.992 24.6289 101.68 24.8867C101.367 25.1445 101.211 25.4727 101.211 25.8711C101.211 26.2461 101.387 26.5508 101.738 26.7852C102.098 27.0117 102.699 27.2109 103.543 27.3828C104.387 27.5469 105.098 27.7344 105.676 27.9453C107.465 28.6016 108.359 29.7383 108.359 31.3555C108.359 32.5117 107.863 33.4492 106.871 34.168C105.879 34.8789 104.598 35.2344 103.027 35.2344C101.965 35.2344 101.02 35.0469 100.191 34.6719C99.3711 34.2891 98.7266 33.7695 98.2578 33.1133C97.7891 32.4492 97.5547 31.7344 97.5547 30.9688H100.766C100.797 31.5703 101.02 32.0312 101.434 32.3516C101.848 32.6719 102.402 32.832 103.098 32.832C103.746 32.832 104.234 32.7109 104.562 32.4688C104.898 32.2188 105.066 31.8945 105.066 31.4961ZM114.605 19.2031V22.3203H116.773V24.8047H114.605V31.1328C114.605 31.6016 114.695 31.9375 114.875 32.1406C115.055 32.3438 115.398 32.4453 115.906 32.4453C116.281 32.4453 116.613 32.418 116.902 32.3633V34.9297C116.238 35.1328 115.555 35.2344 114.852 35.2344C112.477 35.2344 111.266 34.0352 111.219 31.6367V24.8047H109.367V22.3203H111.219V19.2031H114.605ZM125.785 25.4961C125.324 25.4336 124.918 25.4023 124.566 25.4023C123.285 25.4023 122.445 25.8359 122.047 26.7031V35H118.66V22.3203H121.859L121.953 23.832C122.633 22.668 123.574 22.0859 124.777 22.0859C125.152 22.0859 125.504 22.1367 125.832 22.2383L125.785 25.4961Z" fill="black"/>
<defs>
<linearGradient id="paint0_linear" x1="0" y1="27.0003" x2="53.9995" y2="27.0003" gradientUnits="userSpaceOnUse">
<stop stop-color="#00AAFF"/>
<stop offset="1" stop-color="#00AAFF"/>
</linearGradient>
<linearGradient id="paint1_linear" x1="3.33045" y1="43.7555" x2="28.1942" y2="0.690198" gradientUnits="userSpaceOnUse">
<stop stop-color="#0BF0E2"/>
<stop offset="0.7" stop-color="#00AAFF"/>
<stop offset="1" stop-color="#00AAFF" stop-opacity="0"/>
</linearGradient>
<linearGradient id="paint2_linear" x1="25.8043" y1="53.3095" x2="50.668" y2="10.2442" gradientUnits="userSpaceOnUse">
<stop stop-color="#00AAFF" stop-opacity="0"/>
<stop offset="0.3" stop-color="#00ADFE"/>
<stop offset="1" stop-color="#0BF0E2"/>
</linearGradient>
</defs>
</svg>
